<mxfile host="app.diagrams.net" modified="2024-05-24T08:06:43.127Z" agent="Mozilla/5.0 (Windows NT 10.0; Win64; x64) AppleWebKit/537.36 (KHTML, like Gecko) Chrome/125.0.0.0 Safari/537.36" etag="a6uHD-18MFNWKcffJr4x" version="24.4.4" type="device">
  <diagram name="Page-1" id="00zFlX86LlaNrVqP1P2t">
    <mxGraphModel dx="954" dy="558" grid="1" gridSize="10" guides="1" tooltips="1" connect="1" arrows="1" fold="1" page="1" pageScale="1" pageWidth="850" pageHeight="1100" math="0" shadow="0">
      <root>
        <mxCell id="0" />
        <mxCell id="1" parent="0" />
        <mxCell id="y1aAaV-yz0VhCzlS0p6q-33" value="" style="rounded=0;whiteSpace=wrap;html=1;dashed=1;fillColor=#b0e3e6;strokeColor=#0e8088;" parent="1" vertex="1">
          <mxGeometry x="200" y="800" width="410" height="200" as="geometry" />
        </mxCell>
        <mxCell id="y1aAaV-yz0VhCzlS0p6q-31" value="" style="rounded=0;whiteSpace=wrap;html=1;dashed=1;fillColor=#fad9d5;strokeColor=#ae4132;" parent="1" vertex="1">
          <mxGeometry x="200" y="60" width="410" height="440" as="geometry" />
        </mxCell>
        <mxCell id="y1aAaV-yz0VhCzlS0p6q-28" style="edgeStyle=orthogonalEdgeStyle;rounded=0;orthogonalLoop=1;jettySize=auto;html=1;exitX=0.5;exitY=1;exitDx=0;exitDy=0;" parent="1" source="y1aAaV-yz0VhCzlS0p6q-17" target="y1aAaV-yz0VhCzlS0p6q-27" edge="1">
          <mxGeometry relative="1" as="geometry" />
        </mxCell>
        <mxCell id="y1aAaV-yz0VhCzlS0p6q-17" value="" style="rounded=0;whiteSpace=wrap;html=1;dashed=1;fillColor=#bac8d3;strokeColor=#23445d;" parent="1" vertex="1">
          <mxGeometry x="200" y="515" width="410" height="265" as="geometry" />
        </mxCell>
        <mxCell id="y1aAaV-yz0VhCzlS0p6q-7" style="edgeStyle=orthogonalEdgeStyle;rounded=0;orthogonalLoop=1;jettySize=auto;html=1;exitX=0.5;exitY=1;exitDx=0;exitDy=0;exitPerimeter=0;" parent="1" source="y1aAaV-yz0VhCzlS0p6q-2" edge="1">
          <mxGeometry relative="1" as="geometry">
            <mxPoint x="405" y="250" as="targetPoint" />
          </mxGeometry>
        </mxCell>
        <mxCell id="y1aAaV-yz0VhCzlS0p6q-2" value="Data Bursa Efek Indonesia" style="shape=cylinder3;whiteSpace=wrap;html=1;boundedLbl=1;backgroundOutline=1;size=15;" parent="1" vertex="1">
          <mxGeometry x="370" y="90" width="70" height="80" as="geometry" />
        </mxCell>
        <mxCell id="y1aAaV-yz0VhCzlS0p6q-8" style="edgeStyle=orthogonalEdgeStyle;rounded=0;orthogonalLoop=1;jettySize=auto;html=1;exitX=0.5;exitY=1;exitDx=0;exitDy=0;exitPerimeter=0;entryX=0.5;entryY=0;entryDx=0;entryDy=0;" parent="1" source="y1aAaV-yz0VhCzlS0p6q-3" target="y1aAaV-yz0VhCzlS0p6q-5" edge="1">
          <mxGeometry relative="1" as="geometry" />
        </mxCell>
        <mxCell id="y1aAaV-yz0VhCzlS0p6q-3" value="Data Suku Bunga" style="shape=cylinder3;whiteSpace=wrap;html=1;boundedLbl=1;backgroundOutline=1;size=15;" parent="1" vertex="1">
          <mxGeometry x="500" y="90" width="70" height="80" as="geometry" />
        </mxCell>
        <mxCell id="y1aAaV-yz0VhCzlS0p6q-6" style="edgeStyle=orthogonalEdgeStyle;rounded=0;orthogonalLoop=1;jettySize=auto;html=1;exitX=0.5;exitY=1;exitDx=0;exitDy=0;exitPerimeter=0;entryX=0.5;entryY=0;entryDx=0;entryDy=0;" parent="1" source="y1aAaV-yz0VhCzlS0p6q-4" target="y1aAaV-yz0VhCzlS0p6q-5" edge="1">
          <mxGeometry relative="1" as="geometry" />
        </mxCell>
        <mxCell id="y1aAaV-yz0VhCzlS0p6q-4" value="Data Nilai Transaksi" style="shape=cylinder3;whiteSpace=wrap;html=1;boundedLbl=1;backgroundOutline=1;size=15;" parent="1" vertex="1">
          <mxGeometry x="240" y="90" width="70" height="80" as="geometry" />
        </mxCell>
        <mxCell id="2f7jNj_18ex_RIzTnLpE-1" style="edgeStyle=orthogonalEdgeStyle;rounded=0;orthogonalLoop=1;jettySize=auto;html=1;exitX=0.5;exitY=1;exitDx=0;exitDy=0;entryX=0.5;entryY=0;entryDx=0;entryDy=0;" edge="1" parent="1" source="y1aAaV-yz0VhCzlS0p6q-5" target="y1aAaV-yz0VhCzlS0p6q-10">
          <mxGeometry relative="1" as="geometry" />
        </mxCell>
        <mxCell id="y1aAaV-yz0VhCzlS0p6q-5" value="Integrasi Data" style="rounded=0;whiteSpace=wrap;html=1;" parent="1" vertex="1">
          <mxGeometry x="345" y="240" width="120" height="60" as="geometry" />
        </mxCell>
        <mxCell id="y1aAaV-yz0VhCzlS0p6q-21" style="edgeStyle=orthogonalEdgeStyle;rounded=0;orthogonalLoop=1;jettySize=auto;html=1;exitX=0.5;exitY=1;exitDx=0;exitDy=0;" parent="1" source="y1aAaV-yz0VhCzlS0p6q-10" target="y1aAaV-yz0VhCzlS0p6q-17" edge="1">
          <mxGeometry relative="1" as="geometry" />
        </mxCell>
        <mxCell id="y1aAaV-yz0VhCzlS0p6q-10" value="Scaling dan Pemisahan Data" style="rounded=0;whiteSpace=wrap;html=1;" parent="1" vertex="1">
          <mxGeometry x="345" y="380" width="120" height="60" as="geometry" />
        </mxCell>
        <mxCell id="y1aAaV-yz0VhCzlS0p6q-25" style="edgeStyle=orthogonalEdgeStyle;rounded=0;orthogonalLoop=1;jettySize=auto;html=1;exitX=1;exitY=0.5;exitDx=0;exitDy=0;" parent="1" source="y1aAaV-yz0VhCzlS0p6q-22" target="y1aAaV-yz0VhCzlS0p6q-18" edge="1">
          <mxGeometry relative="1" as="geometry" />
        </mxCell>
        <mxCell id="y1aAaV-yz0VhCzlS0p6q-22" value="" style="rounded=0;whiteSpace=wrap;html=1;dashed=1;fillColor=#fad7ac;strokeColor=#b46504;" parent="1" vertex="1">
          <mxGeometry x="230" y="522.5" width="160" height="250" as="geometry" />
        </mxCell>
        <mxCell id="y1aAaV-yz0VhCzlS0p6q-19" style="edgeStyle=orthogonalEdgeStyle;rounded=0;orthogonalLoop=1;jettySize=auto;html=1;exitX=0.5;exitY=1;exitDx=0;exitDy=0;" parent="1" source="y1aAaV-yz0VhCzlS0p6q-13" target="y1aAaV-yz0VhCzlS0p6q-14" edge="1">
          <mxGeometry relative="1" as="geometry" />
        </mxCell>
        <mxCell id="y1aAaV-yz0VhCzlS0p6q-13" value="Optimisasi Adam" style="rounded=0;whiteSpace=wrap;html=1;" parent="1" vertex="1">
          <mxGeometry x="250" y="530" width="120" height="60" as="geometry" />
        </mxCell>
        <mxCell id="y1aAaV-yz0VhCzlS0p6q-20" style="edgeStyle=orthogonalEdgeStyle;rounded=0;orthogonalLoop=1;jettySize=auto;html=1;exitX=0.5;exitY=1;exitDx=0;exitDy=0;" parent="1" source="y1aAaV-yz0VhCzlS0p6q-14" target="y1aAaV-yz0VhCzlS0p6q-15" edge="1">
          <mxGeometry relative="1" as="geometry" />
        </mxCell>
        <mxCell id="y1aAaV-yz0VhCzlS0p6q-14" value="Pehitungan Loss" style="rounded=0;whiteSpace=wrap;html=1;" parent="1" vertex="1">
          <mxGeometry x="250" y="610" width="120" height="60" as="geometry" />
        </mxCell>
        <mxCell id="y1aAaV-yz0VhCzlS0p6q-15" value="Optimized Tuning" style="rounded=0;whiteSpace=wrap;html=1;" parent="1" vertex="1">
          <mxGeometry x="250" y="690" width="120" height="60" as="geometry" />
        </mxCell>
        <mxCell id="y1aAaV-yz0VhCzlS0p6q-18" value="LSTM&lt;sub&gt;1...n&lt;/sub&gt;&lt;div&gt;(SEQUENCE)&lt;/div&gt;" style="rounded=0;whiteSpace=wrap;html=1;" parent="1" vertex="1">
          <mxGeometry x="465" y="537.5" width="120" height="220" as="geometry" />
        </mxCell>
        <mxCell id="y1aAaV-yz0VhCzlS0p6q-23" value="Pelatihan Model" style="text;html=1;align=center;verticalAlign=middle;whiteSpace=wrap;rounded=0;" parent="1" vertex="1">
          <mxGeometry x="260" y="747.5" width="100" height="30" as="geometry" />
        </mxCell>
        <mxCell id="y1aAaV-yz0VhCzlS0p6q-26" value="Hidden Layer" style="text;html=1;align=center;verticalAlign=middle;whiteSpace=wrap;rounded=0;fontStyle=1" parent="1" vertex="1">
          <mxGeometry x="508" y="511" width="110" height="30" as="geometry" />
        </mxCell>
        <mxCell id="y1aAaV-yz0VhCzlS0p6q-30" style="edgeStyle=orthogonalEdgeStyle;rounded=0;orthogonalLoop=1;jettySize=auto;html=1;exitX=0.5;exitY=1;exitDx=0;exitDy=0;" parent="1" source="y1aAaV-yz0VhCzlS0p6q-27" target="y1aAaV-yz0VhCzlS0p6q-29" edge="1">
          <mxGeometry relative="1" as="geometry" />
        </mxCell>
        <mxCell id="y1aAaV-yz0VhCzlS0p6q-27" value="Membalikkan Nilai Data (Inverse Transform)" style="rounded=0;whiteSpace=wrap;html=1;" parent="1" vertex="1">
          <mxGeometry x="345" y="830" width="120" height="60" as="geometry" />
        </mxCell>
        <mxCell id="y1aAaV-yz0VhCzlS0p6q-29" value="Prediksi Model" style="rounded=0;whiteSpace=wrap;html=1;" parent="1" vertex="1">
          <mxGeometry x="345" y="920" width="120" height="60" as="geometry" />
        </mxCell>
        <mxCell id="y1aAaV-yz0VhCzlS0p6q-32" value="Input Layer" style="text;html=1;align=center;verticalAlign=middle;whiteSpace=wrap;rounded=0;fontStyle=1" parent="1" vertex="1">
          <mxGeometry x="513" y="56" width="110" height="30" as="geometry" />
        </mxCell>
        <mxCell id="y1aAaV-yz0VhCzlS0p6q-35" value="Output Layer" style="text;html=1;align=center;verticalAlign=middle;whiteSpace=wrap;rounded=0;fontStyle=1" parent="1" vertex="1">
          <mxGeometry x="506" y="800" width="110" height="30" as="geometry" />
        </mxCell>
      </root>
    </mxGraphModel>
  </diagram>
</mxfile>
